<svg xmlns="http://www.w3.org/2000/svg" version="1.1" xmlns:xlink="http://www.w3.org/1999/xlink" width="512" height="512" x="0" y="0" viewBox="0 0 128 128" style="enable-background:new 0 0 512 512" xml:space="preserve"><g><g fill="#f3963c"><path d="m45.157 108.041 4.229-22.484-15.778-16.594C23.923 82 20.329 110.445 45.157 108.041zM94.392 68.963 78.614 85.557l4.229 22.484c24.828 2.404 21.234-26.041 11.549-39.078z" fill="#f3963c" opacity="1" data-original="#f3963c"></path></g><path fill="#ffbe82" d="M63.438 115.5h1.124a27.028 27.028 0 0 0 26.767-24.277 72.091 72.091 0 0 0-.175-14.7 108.085 108.085 0 0 0-54.308 0 72.091 72.091 0 0 0-.175 14.7A27.028 27.028 0 0 0 63.438 115.5z" opacity="1" data-original="#ffbe82"></path><path fill="#ffa75f" d="M31.2 56.586C26.228 70.4 36.729 84.931 52.381 85.978a174.262 174.262 0 0 0 23.237 0C91.271 84.931 101.773 70.4 96.8 56.586a56.98 56.98 0 0 0-6.536-13.362q3.8-4.206 7.117-8.573a1.157 1.157 0 0 0-1.3-1.8 98.73 98.73 0 0 1-64.259-.063 1.154 1.154 0 0 0-1.266 1.82c2.295 2.881 5.037 5.727 7.3 8.527h.025l-.1.013A56.743 56.743 0 0 0 31.2 56.586z" opacity="1" data-original="#ffa75f"></path><path fill="#3c4465" d="M84.418 35.918V22.125H43.582v13.793c0 10.145 40.836 10.145 40.836 0z" opacity="1" data-original="#3c4465"></path><path fill="#4d5e80" d="M64 8.872 30.268 23.72 64 38.567 97.732 23.72z" opacity="1" data-original="#4d5e80"></path><path fill="#ffbe40" d="M38.1 45.04a8.5 8.5 0 0 1-3.211 0q-.779 4.158-1.528 8.17a8.509 8.509 0 0 0 6.266 0q-.743-4.01-1.527-8.17z" opacity="1" data-original="#ffbe40"></path><path fill="#3c4465" d="M38.246 41.406V28.045l25.928-2.584a1.75 1.75 0 1 0-.348-3.482l-27.5 2.741a1.75 1.75 0 0 0-1.576 1.741v14.945a1.75 1.75 0 0 0 3.5 0z" opacity="1" data-original="#3c4465"></path><path fill="#fb3d80" d="M38.944 43.6a2.448 2.448 0 1 0-2.444 2.45 2.448 2.448 0 0 0 2.444-2.45z" opacity="1" data-original="#fb3d80"></path><path fill="#fff5f5" d="M64 67.483a13.65 13.65 0 0 0 11.635 7.333c6.685 0 11.524-5.789 10.807-12.931s-6.717-12.931-13.4-12.931A10.526 10.526 0 0 0 64 53.946a10.526 10.526 0 0 0-9.04-4.992c-6.685 0-12.686 5.789-13.4 12.931s4.12 12.931 10.805 12.931A13.65 13.65 0 0 0 64 67.483z" opacity="1" data-original="#fff5f5"></path><path fill="#3c4465" d="M67.273 74.031a3.687 3.687 0 0 0 0-5.213L64 65.545l-3.273 3.273a3.687 3.687 0 0 0 0 5.213L64 77.3z" opacity="1" data-original="#3c4465"></path><g fill="#3c4465"><path d="M49.632 64.643a1.75 1.75 0 0 0 1.737-1.559 2.028 2.028 0 0 1 2.1-1.633 2.081 2.081 0 0 1 2.072 1.428 1.75 1.75 0 0 0 3.395-.85 5.674 5.674 0 0 0-11.043.672 1.749 1.749 0 0 0 1.547 1.931 1.588 1.588 0 0 0 .192.011zM72.461 62.879a2.081 2.081 0 0 1 2.072-1.428 2.028 2.028 0 0 1 2.1 1.633 1.75 1.75 0 0 0 1.737 1.559 1.588 1.588 0 0 0 .194-.011 1.749 1.749 0 0 0 1.545-1.932 5.674 5.674 0 0 0-11.043-.672 1.75 1.75 0 0 0 3.395.85z" fill="#3c4465" opacity="1" data-original="#3c4465"></path></g><path fill="#f3963c" d="M99.155 115.505a3.293 3.293 0 0 0 0-6.585h-70.31a3.293 3.293 0 0 0 0 6.585z" opacity="1" data-original="#f3963c"></path><g fill="#3c4465"><path d="M51.235 116.291v-7.227a2.837 2.837 0 1 0-5.673 0v7.227a2.837 2.837 0 1 0 5.673 0z" fill="#3c4465" opacity="1" data-original="#3c4465"></path><path d="M56.908 116.291v-7.227a2.837 2.837 0 1 0-5.673 0v7.227a2.837 2.837 0 1 0 5.673 0zM76.765 116.291v-7.227a2.837 2.837 0 1 0-5.673 0v7.227a2.837 2.837 0 1 0 5.673 0z" fill="#3c4465" opacity="1" data-original="#3c4465"></path><path d="M82.438 116.291v-7.227a2.837 2.837 0 1 0-5.673 0v7.227a2.837 2.837 0 1 0 5.673 0z" fill="#3c4465" opacity="1" data-original="#3c4465"></path></g></g></svg>